<svg width="50" height="50" viewBox="0 0 50 50" fill="none" xmlns="http://www.w3.org/2000/svg">
<rect width="50" height="50" rx="5" fill="white"/>
<path d="M20.417 22.1719C20.3076 21.7917 20.154 21.4557 19.9561 21.1641C19.7581 20.8672 19.516 20.6172 19.2295 20.4141C18.9482 20.2057 18.6253 20.0469 18.2607 19.9375C17.9014 19.8281 17.5029 19.7734 17.0654 19.7734C16.2477 19.7734 15.529 19.9766 14.9092 20.3828C14.2946 20.7891 13.8154 21.3802 13.4717 22.1562C13.1279 22.9271 12.9561 23.8698 12.9561 24.9844C12.9561 26.099 13.1253 27.0469 13.4639 27.8281C13.8024 28.6094 14.2816 29.2057 14.9014 29.6172C15.5212 30.0234 16.2529 30.2266 17.0967 30.2266C17.8623 30.2266 18.516 30.0911 19.0576 29.8203C19.6045 29.5443 20.0212 29.1562 20.3076 28.6562C20.5993 28.1562 20.7451 27.5651 20.7451 26.8828L21.4326 26.9844H17.3076V24.4375H24.0029V26.4531C24.0029 27.8594 23.7061 29.0677 23.1123 30.0781C22.5186 31.0833 21.7008 31.8594 20.6592 32.4062C19.6175 32.9479 18.4248 33.2187 17.0811 33.2187C15.5811 33.2187 14.2633 32.888 13.1279 32.2266C11.9925 31.5599 11.1071 30.6146 10.4717 29.3906C9.84147 28.1615 9.52637 26.7031 9.52637 25.0156C9.52637 23.7187 9.71387 22.5625 10.0889 21.5469C10.4691 20.526 11.0003 19.6615 11.6826 18.9531C12.3649 18.2448 13.1592 17.7057 14.0654 17.3359C14.9717 16.9661 15.9535 16.7812 17.0107 16.7812C17.917 16.7812 18.7607 16.9141 19.542 17.1797C20.3232 17.4401 21.016 17.8099 21.6201 18.2891C22.2295 18.7682 22.7269 19.3385 23.1123 20C23.4977 20.6562 23.7451 21.3802 23.8545 22.1719H20.417ZM37.1533 22.1719C37.0439 21.7917 36.8903 21.4557 36.6924 21.1641C36.4945 20.8672 36.2523 20.6172 35.9658 20.4141C35.6846 20.2057 35.3617 20.0469 34.9971 19.9375C34.6377 19.8281 34.2393 19.7734 33.8018 19.7734C32.984 19.7734 32.2653 19.9766 31.6455 20.3828C31.0309 20.7891 30.5518 21.3802 30.208 22.1562C29.8643 22.9271 29.6924 23.8698 29.6924 24.9844C29.6924 26.099 29.8617 27.0469 30.2002 27.8281C30.5387 28.6094 31.0179 29.2057 31.6377 29.6172C32.2575 30.0234 32.9893 30.2266 33.833 30.2266C34.5986 30.2266 35.2523 30.0911 35.7939 29.8203C36.3408 29.5443 36.7575 29.1562 37.0439 28.6562C37.3356 28.1562 37.4814 27.5651 37.4814 26.8828L38.1689 26.9844H34.0439V24.4375H40.7393V26.4531C40.7393 27.8594 40.4424 29.0677 39.8486 30.0781C39.2549 31.0833 38.4372 31.8594 37.3955 32.4062C36.3538 32.9479 35.1611 33.2187 33.8174 33.2187C32.3174 33.2187 30.9997 32.888 29.8643 32.2266C28.7288 31.5599 27.8434 30.6146 27.208 29.3906C26.5778 28.1615 26.2627 26.7031 26.2627 25.0156C26.2627 23.7187 26.4502 22.5625 26.8252 21.5469C27.2054 20.526 27.7367 19.6615 28.4189 18.9531C29.1012 18.2448 29.8955 17.7057 30.8018 17.3359C31.708 16.9661 32.6898 16.7812 33.7471 16.7812C34.6533 16.7812 35.4971 16.9141 36.2783 17.1797C37.0596 17.4401 37.7523 17.8099 38.3564 18.2891C38.9658 18.7682 39.4632 19.3385 39.8486 20C40.234 20.6562 40.4814 21.3802 40.5908 22.1719H37.1533Z" fill="black"/>
<path d="M19.7379 22.6044C19.6136 22.2017 19.4421 21.8413 19.2234 21.5231C19.0096 21.1999 18.7511 20.924 18.4478 20.6953C18.1495 20.4666 17.8065 20.2951 17.4187 20.1808C17.0309 20.0614 16.6083 20.0018 16.1509 20.0018C15.3306 20.0018 14.5998 20.2081 13.9585 20.6207C13.3171 21.0334 12.8125 21.6399 12.4446 22.4403C12.0817 23.2358 11.9002 24.2053 11.9002 25.3487C11.9002 26.5021 12.0817 27.479 12.4446 28.2795C12.8075 29.0799 13.3121 29.6889 13.9585 30.1065C14.6048 30.5192 15.3555 30.7255 16.2106 30.7255C16.9862 30.7255 17.6573 30.5763 18.2241 30.2781C18.7958 29.9798 19.2358 29.5572 19.544 29.0103C19.8523 28.4585 20.0064 27.8121 20.0064 27.0714L20.6328 27.1683H16.4865V25.0057H22.6836V26.8402C22.6836 28.1477 22.4052 29.2788 21.8484 30.2333C21.2915 31.1879 20.5259 31.9237 19.5515 32.4407C18.5771 32.9528 17.4585 33.2088 16.1957 33.2088C14.7887 33.2088 13.5533 32.8931 12.4893 32.2617C11.4304 31.6254 10.6026 30.723 10.006 29.5547C9.41442 28.3814 9.11861 26.9893 9.11861 25.3786C9.11861 24.1456 9.29261 23.0444 9.64062 22.0749C9.99361 21.1055 10.4858 20.2827 11.1172 19.6065C11.7486 18.9254 12.4893 18.4084 13.3395 18.0554C14.1896 17.6974 15.1143 17.5185 16.1136 17.5185C16.9588 17.5185 17.7468 17.6428 18.4776 17.8913C19.2085 18.1349 19.8572 18.483 20.424 18.9354C20.9957 19.3878 21.4656 19.9247 21.8335 20.5462C22.2014 21.1676 22.4425 21.8537 22.5568 22.6044H19.7379ZM35.5905 22.6044C35.4662 22.2017 35.2947 21.8413 35.0759 21.5231C34.8621 21.1999 34.6036 20.924 34.3003 20.6953C34.002 20.4666 33.659 20.2951 33.2712 20.1808C32.8834 20.0614 32.4608 20.0018 32.0035 20.0018C31.1832 20.0018 30.4523 20.2081 29.811 20.6207C29.1697 21.0334 28.665 21.6399 28.2971 22.4403C27.9342 23.2358 27.7528 24.2053 27.7528 25.3487C27.7528 26.5021 27.9342 27.479 28.2971 28.2795C28.6601 29.0799 29.1647 29.6889 29.811 30.1065C30.4573 30.5192 31.208 30.7255 32.0631 30.7255C32.8387 30.7255 33.5099 30.5763 34.0766 30.2781C34.6483 29.9798 35.0883 29.5572 35.3966 29.0103C35.7048 28.4585 35.8589 27.8121 35.8589 27.0714L36.4854 27.1683H32.339V25.0057H38.5361V26.8402C38.5361 28.1477 38.2577 29.2788 37.7009 30.2333C37.1441 31.1879 36.3785 31.9237 35.404 32.4407C34.4296 32.9528 33.311 33.2088 32.0482 33.2088C30.6412 33.2088 29.4058 32.8931 28.3419 32.2617C27.2829 31.6254 26.4552 30.723 25.8586 29.5547C25.267 28.3814 24.9711 26.9893 24.9711 25.3786C24.9711 24.1456 25.1452 23.0444 25.4932 22.0749C25.8461 21.1055 26.3383 20.2827 26.9697 19.6065C27.6011 18.9254 28.3419 18.4084 29.192 18.0554C30.0422 17.6974 30.9669 17.5185 31.9662 17.5185C32.8113 17.5185 33.5993 17.6428 34.3302 17.8913C35.061 18.1349 35.7098 18.483 36.2765 18.9354C36.8483 19.3878 37.3181 19.9247 37.686 20.5462C38.0539 21.1676 38.295 21.8537 38.4094 22.6044H35.5905Z" fill="#1F4EF5"/>
</svg>
